<svg width="45" height="45" viewBox="0 0 45 45" fill="none" xmlns="http://www.w3.org/2000/svg">
<path d="M45 21.9169C45 18.9356 41.2669 16.11 35.5425 14.3588C36.8644 8.52563 36.2775 3.88313 33.69 2.39625C33.063 2.0451 32.3534 1.86835 31.635 1.88437V3.92813C32.0569 3.92813 32.3963 4.0125 32.6813 4.16813C33.9281 4.88438 34.47 7.60688 34.0481 11.1113C33.9469 11.9738 33.7819 12.8813 33.5794 13.8075C31.6624 13.3456 29.7169 13.0117 27.7556 12.8081C26.5872 11.1962 25.3125 9.66401 23.94 8.22188C26.9306 5.44313 29.7375 3.92063 31.6463 3.92063V1.875C29.1225 1.875 25.8206 3.67313 22.4812 6.79125C19.1437 3.69375 15.84 1.9125 13.3181 1.9125V3.95625C15.2175 3.95625 18.0338 5.47125 21.0244 8.23125C19.74 9.58125 18.4556 11.1113 17.235 12.8081C15.2697 13.0095 13.3207 13.3465 11.4019 13.8169C11.1991 12.939 11.0395 12.0517 10.9238 11.1581C10.4925 7.65188 11.025 4.92938 12.2644 4.20563C12.5381 4.04063 12.8963 3.96563 13.3181 3.96563V1.92187C12.5494 1.92187 11.85 2.08687 11.2463 2.43375C8.66813 3.92063 8.09063 8.55188 9.42 14.3681C3.71438 16.1306 0 18.945 0 21.9169C0 24.8981 3.73313 27.7238 9.4575 29.4731C8.13563 35.3081 8.7225 39.9506 11.31 41.4356C11.9063 41.7844 12.6037 41.9494 13.3725 41.9494C15.8962 41.9494 19.1981 40.1513 22.5375 37.0331C25.875 40.1325 29.1769 41.9119 31.7006 41.9119C32.4246 41.9272 33.1396 41.7499 33.7725 41.3981C36.3506 39.9131 36.9281 35.2819 35.5988 29.4656C41.2856 27.7144 45 24.8888 45 21.9169ZM33.0562 15.7988C32.7 17.0247 32.287 18.2335 31.8187 19.4213C31.0522 17.9302 30.2105 16.4789 29.2969 15.0731C30.6 15.2663 31.8563 15.5044 33.0581 15.7988H33.0562ZM28.8563 25.5675C28.1695 26.7665 27.4319 27.9357 26.6456 29.0719C23.8936 29.3144 21.1257 29.3176 18.3731 29.0813C16.7943 26.826 15.4135 24.4383 14.2463 21.945C15.4117 19.4458 16.7866 17.0498 18.3562 14.7825C21.1076 14.5394 23.8749 14.5357 26.6269 14.7713C27.3881 15.8625 28.1325 17.0288 28.8469 18.2588C29.5444 19.4588 30.1781 20.6775 30.7556 21.9075C30.1717 23.1524 29.5381 24.3734 28.8563 25.5675V25.5675ZM31.8187 24.375C32.3137 25.6031 32.7375 26.8331 33.0844 28.0256C31.8844 28.32 30.6169 28.5675 29.3063 28.7588C30.2161 27.3402 31.0546 25.8771 31.8187 24.375V24.375ZM22.5188 34.1625C21.6656 33.2813 20.8125 32.3006 19.9687 31.2263C20.7937 31.2638 21.6375 31.2919 22.4906 31.2919C23.3531 31.2919 24.2062 31.2731 25.0406 31.2263C24.2156 32.3006 23.3625 33.2813 22.5188 34.1625ZM15.6937 28.7588C14.4295 28.5756 13.1744 28.3341 11.9325 28.035C12.2719 26.8519 12.6938 25.6313 13.17 24.4125C13.5469 25.1438 13.9425 25.8788 14.3737 26.6138C14.805 27.3469 15.2437 28.0631 15.6937 28.7588ZM22.4719 9.67125C23.325 10.5525 24.1781 11.5331 25.0219 12.6075C24.1969 12.57 23.3531 12.5419 22.5 12.5419C21.6375 12.5419 20.7844 12.5606 19.95 12.6075C20.775 11.5331 21.6281 10.5525 22.4719 9.67125ZM15.6844 15.075C14.7748 16.4905 13.9362 17.9504 13.1719 19.4494C12.6904 18.254 12.268 17.0356 11.9062 15.7988C13.1062 15.5138 14.3737 15.2663 15.6844 15.075ZM7.38375 26.5575C4.13625 25.1738 2.03625 23.3569 2.03625 21.9169C2.03625 20.4769 4.13625 18.6506 7.38375 17.2763C8.17125 16.9369 9.03375 16.6331 9.92438 16.35C10.4475 18.1463 11.1356 20.0175 11.9869 21.9356C11.1832 23.7397 10.5035 25.5965 9.9525 27.4931C9.08147 27.2234 8.22419 26.9112 7.38375 26.5575V26.5575ZM12.3188 39.6638C11.0719 38.9513 10.53 36.225 10.9519 32.7225C11.0531 31.86 11.2181 30.9506 11.4206 30.0244C13.2169 30.465 15.18 30.8044 17.2444 31.0256C18.4128 32.6375 19.6875 34.1697 21.06 35.6119C18.0694 38.3906 15.2625 39.9131 13.3538 39.9131C12.9936 39.9171 12.6381 39.832 12.3188 39.6656V39.6638ZM34.0762 32.6756C34.5075 36.18 33.975 38.9044 32.7356 39.6281C32.4619 39.7931 32.1037 39.8663 31.6819 39.8663C29.7825 39.8663 26.9662 38.3531 23.9756 35.5913C25.3424 34.1551 26.6085 32.6265 27.765 31.0163C29.7303 30.8149 31.6793 30.4779 33.5981 30.0075C33.81 30.9338 33.9731 31.8225 34.0762 32.6756V32.6756ZM37.6069 26.5575C36.8194 26.8969 35.9569 27.2006 35.0662 27.4838C34.5056 25.5775 33.8165 23.7113 33.0037 21.8981C33.8475 19.9913 34.5244 18.1294 35.0381 16.3406C35.9119 16.6112 36.7723 16.9235 37.6163 17.2763C40.8638 18.66 42.9637 20.4769 42.9637 21.9169C42.9544 23.3569 40.8544 25.1831 37.6069 26.5575V26.5575Z" fill="#2E2D4D"/>
<path d="M22.4908 26.1094C23.6028 26.1094 24.6691 25.6677 25.4554 24.8814C26.2416 24.0952 26.6833 23.0288 26.6833 21.9169C26.6833 20.8049 26.2416 19.7386 25.4554 18.9523C24.6691 18.1661 23.6028 17.7244 22.4908 17.7244C21.3789 17.7244 20.3125 18.1661 19.5263 18.9523C18.74 19.7386 18.2983 20.8049 18.2983 21.9169C18.2983 23.0288 18.74 24.0952 19.5263 24.8814C20.3125 25.6677 21.3789 26.1094 22.4908 26.1094V26.1094Z" fill="#2E2D4D"/>
</svg>
