<svg width="45" height="45" viewBox="0 0 45 45" fill="none" xmlns="http://www.w3.org/2000/svg">
<path d="M27.7879 27.8955C28.305 28.9435 29.1072 29.8245 30.1024 30.4371C31.0976 31.0496 32.2455 31.369 33.4141 31.3585C35.7773 31.3585 37.2871 30.1769 37.2871 28.5454C37.2871 26.5906 35.7356 25.8973 33.1358 24.759L31.7093 24.1474C27.5946 22.3942 24.8598 20.1978 24.8598 15.5548C24.8598 11.2768 28.1196 8.02211 33.2125 8.02211C34.8654 7.90217 36.5171 8.27215 37.9609 9.0858C39.4047 9.89944 40.5766 11.1206 41.3301 12.5967L36.8888 15.4482C36.598 14.7167 36.0915 14.0911 35.4367 13.6544C34.7818 13.2177 34.0095 12.9906 33.2225 13.0034C32.8794 12.9688 32.533 13.0062 32.2051 13.113C31.8773 13.2199 31.5754 13.3938 31.3185 13.6239C31.0617 13.8539 30.8556 14.1349 30.7134 14.449C30.5712 14.7631 30.4961 15.1034 30.4927 15.4482C30.4927 17.1597 31.5526 17.8513 33.9924 18.9112L35.419 19.5211C40.2652 21.5993 43 23.7175 43 28.4804C43 33.615 38.967 36.4281 33.5491 36.4281C31.4388 36.5623 29.3346 36.083 27.4906 35.048C25.6465 34.0131 24.1414 32.4666 23.1567 30.5952L27.7879 27.8955ZM7.64295 28.3954C8.53954 29.9853 9.35447 31.3285 11.3093 31.3285C13.1825 31.3285 14.3657 30.5952 14.3657 27.7455V8.35541H20.0686V27.8255C20.0686 33.73 16.6055 36.4181 11.5526 36.4181C9.76775 36.5147 7.99545 36.0687 6.46887 35.1389C4.9423 34.209 3.73297 32.8388 3 31.2085L7.64295 28.3954Z" fill="#2E2D4D"/>
</svg>
